<svg width="16" height="16" viewBox="0 0 16 16" fill="none" xmlns="http://www.w3.org/2000/svg">
<path d="M8.13391 7.86681L7.19389 8.80681C6.67389 9.32681 6.67389 10.1735 7.19389 10.6935C7.71388 11.2135 8.56056 11.2135 9.08056 10.6935L10.5606 9.21349C11.6006 8.17349 11.6006 6.48682 10.5606 5.44016C9.52058 4.40016 7.83389 4.40016 6.78723 5.44016L5.17391 7.05348C4.28057 7.94681 4.28057 9.39348 5.17391 10.2868" stroke="#292D32" stroke-width="1.5" stroke-linecap="round" stroke-linejoin="round"/>
<path d="M7.9987 14.6668C11.6806 14.6668 14.6654 11.6821 14.6654 8.00016C14.6654 4.31826 11.6806 1.3335 7.9987 1.3335C4.3168 1.3335 1.33203 4.31826 1.33203 8.00016C1.33203 11.6821 4.3168 14.6668 7.9987 14.6668Z" stroke="#292D32" stroke-width="1.5" stroke-linecap="round" stroke-linejoin="round"/>
</svg>
