<svg width="17" height="16" viewBox="0 0 17 16" fill="none" xmlns="http://www.w3.org/2000/svg">
<path d="M15.1667 11.6665H10.5" stroke="#0D0106" stroke-width="1.5" stroke-miterlimit="10" stroke-linecap="round" stroke-linejoin="round"/>
<path d="M3.83398 11.6665H1.83398" stroke="#0D0106" stroke-width="1.5" stroke-miterlimit="10" stroke-linecap="round" stroke-linejoin="round"/>
<path d="M15.166 4.3335H13.166" stroke="#0D0106" stroke-width="1.5" stroke-miterlimit="10" stroke-linecap="round" stroke-linejoin="round"/>
<path d="M6.50065 4.3335H1.83398" stroke="#0D0106" stroke-width="1.5" stroke-miterlimit="10" stroke-linecap="round" stroke-linejoin="round"/>
<path d="M5.16732 9.6665H9.16732C9.90065 9.6665 10.5007 9.99984 10.5007 10.9998V12.3332C10.5007 13.3332 9.90065 13.6665 9.16732 13.6665H5.16732C4.43398 13.6665 3.83398 13.3332 3.83398 12.3332V10.9998C3.83398 9.99984 4.43398 9.6665 5.16732 9.6665Z" stroke="#0D0106" stroke-width="1.5" stroke-miterlimit="10" stroke-linecap="round" stroke-linejoin="round"/>
<path d="M7.83333 2.3335H11.8333C12.5667 2.3335 13.1667 2.66683 13.1667 3.66683V5.00016C13.1667 6.00016 12.5667 6.3335 11.8333 6.3335H7.83333C7.1 6.3335 6.5 6.00016 6.5 5.00016V3.66683C6.5 2.66683 7.1 2.3335 7.83333 2.3335Z" stroke="#0D0106" stroke-width="1.5" stroke-miterlimit="10" stroke-linecap="round" stroke-linejoin="round"/>
</svg>
