<svg width="20" height="18" viewBox="0 0 20 18" fill="none" xmlns="http://www.w3.org/2000/svg">
<path d="M2.50703 2.26215C1.6916 3.08248 1.25 4.19913 1.25 5.39508C1.25 6.91704 1.9098 8.35845 3.25546 10.0293L3.25547 10.0293C4.62854 11.7341 6.69212 13.6284 9.0337 15.7779L9.06044 15.8025L9.06047 15.8025L9.25797 15.9838L9.25796 15.9838L9.26122 15.9868L9.6651 16.3511L10 16.6532L10.3349 16.3511L10.7388 15.9867L10.7388 15.9868L10.7421 15.9838L10.9398 15.8023L10.968 15.7763C13.309 13.6274 15.3719 11.7337 16.7446 10.0292L16.3552 9.71559L16.7446 10.0292C18.0902 8.3584 18.75 6.91704 18.75 5.39508C18.75 4.19908 18.3084 3.08249 17.493 2.26213L17.493 2.26208C16.68 1.44428 15.5734 1 14.3875 1C13.0116 1 11.6617 1.63801 10.7653 2.70369L10.7653 2.70371L9.99999 3.61358L9.23468 2.7037C8.33831 1.63801 6.98832 1 5.6125 1C4.42663 1 3.31999 1.44428 2.50703 2.26215ZM2.50703 2.26215L2.86164 2.61464M2.50703 2.26215L2.86164 2.61464M2.86164 2.61464C3.57611 1.89586 4.55303 1.5 5.6125 1.5C6.83753 1.5 8.04859 2.07033 8.85203 3.02555L3.64488 9.71569C2.33439 8.08852 1.75 6.756 1.75 5.39508C1.75 4.32328 2.14478 3.33581 2.86164 2.61464ZM10 2.83679L10.3826 2.38186C11.3637 1.21547 12.8341 0.5 14.3875 0.5C17.1311 0.5 19.25 2.62739 19.25 5.39508C19.25 7.09559 18.4986 8.66581 17.077 10.4132C15.6833 12.1263 13.6957 13.951 11.257 16.1898C11.1973 16.2446 11.1375 16.2995 11.0773 16.3548C11.0768 16.3552 11.0763 16.3557 11.0758 16.3562L10 17.3266L8.92421 16.3562C8.92371 16.3557 8.92321 16.3552 8.9227 16.3548C8.86269 16.2997 8.80294 16.2448 8.74345 16.1902C6.30449 13.9513 4.31672 12.1265 2.92296 10.4132C1.5014 8.66585 0.75 7.09562 0.75 5.39508C0.75 2.62739 2.8689 0.5 5.6125 0.5C7.16587 0.5 8.63626 1.21546 9.61736 2.38187L10 2.83679Z" stroke="#463F3A"/>
</svg>
