<svg width="49" height="49" viewBox="0 0 49 49" fill="none" xmlns="http://www.w3.org/2000/svg">
<path d="M23.995 9C14.941 9 7.12 15.065 4.735 23.591L4.625 24L4.638 24.054C6.873 32.65 14.606 38.834 23.628 38.997L23.995 39C33.048 39 40.87 32.936 43.255 24.41L43.365 23.999L43.352 23.947C41.118 15.35 33.384 9.167 24.362 9.003L23.995 9Z" fill="#EBE9E0"/>
<path d="M23.9946 5C35.1746 5 44.7886 12.705 47.3406 23.413L47.4736 24L47.3406 24.587C44.7886 35.295 35.1756 43 23.9946 43C12.8146 43 3.20062 35.295 0.648625 24.588L0.515625 24.001L0.563625 23.785C2.97962 12.884 12.6846 5 23.9946 5ZM23.9946 7C13.8746 7 5.15462 13.887 2.68563 23.509L2.56563 24.001L2.59762 24.141C4.88562 33.705 13.3256 40.654 23.2476 40.987L23.6246 40.997L23.9946 41C34.2376 41 43.0466 33.944 45.3916 24.139L45.4226 23.999L45.3916 23.861C43.1036 14.295 34.6636 7.346 24.7416 7.013L24.3646 7.003L23.9946 7ZM23.9946 17C24.9139 17 25.8241 17.1811 26.6734 17.5328C27.5227 17.8846 28.2944 18.4002 28.9444 19.0503C29.5944 19.7003 30.11 20.4719 30.4618 21.3212C30.8136 22.1705 30.9946 23.0807 30.9946 24C30.9946 24.9193 30.8136 25.8295 30.4618 26.6788C30.11 27.5281 29.5944 28.2997 28.9444 28.9497C28.2944 29.5998 27.5227 30.1154 26.6734 30.4672C25.8241 30.8189 24.9139 31 23.9946 31C22.1381 31 20.3576 30.2625 19.0449 28.9497C17.7321 27.637 16.9946 25.8565 16.9946 24C16.9946 22.1435 17.7321 20.363 19.0449 19.0503C20.3576 17.7375 22.1381 17 23.9946 17ZM23.9946 19C22.6685 19 21.3968 19.5268 20.4591 20.4645C19.5214 21.4021 18.9946 22.6739 18.9946 24C18.9946 25.3261 19.5214 26.5979 20.4591 27.5355C21.3968 28.4732 22.6685 29 23.9946 29C25.3207 29 26.5925 28.4732 27.5302 27.5355C28.4678 26.5979 28.9946 25.3261 28.9946 24C28.9946 22.6739 28.4678 21.4021 27.5302 20.4645C26.5925 19.5268 25.3207 19 23.9946 19Z" fill="#463F3A"/>
</svg>
