<svg width="48" height="48" viewBox="0 0 48 48" fill="none" xmlns="http://www.w3.org/2000/svg">
<path d="M39 15.999V44H9V15.999H39Z" fill="#EBE9E0"/>
<path d="M24 0C29.4292 0 33.8479 4.32667 33.9962 9.7201L34 10V12H41C42.0544 12 42.9182 12.8159 42.9945 13.8507L43 14V46C43 47.0544 42.1841 47.9182 41.1493 47.9945L41 48H7C5.94564 48 5.08183 47.1841 5.00549 46.1493L5 46V14C5 12.9456 5.81588 12.0818 6.85074 12.0055L7 12H14V10C14 4.47715 18.4772 0 24 0ZM41 14H7V46H41V14ZM24 28C25.6569 28 27 29.3431 27 31C27 32.6569 25.6569 34 24 34C22.3431 34 21 32.6569 21 31C21 29.3431 22.3431 28 24 28ZM24 30C23.4477 30 23 30.4477 23 31C23 31.5523 23.4477 32 24 32C24.5523 32 25 31.5523 25 31C25 30.4477 24.5523 30 24 30ZM24 2C19.6651 2 16.1355 5.44784 16.0038 9.75082L16 10V12H32V10C32 5.58172 28.4183 2 24 2Z" fill="#463F3A"/>
</svg>
