<svg width="32" height="32" viewBox="0 0 32 32" fill="none" xmlns="http://www.w3.org/2000/svg">
<path d="M16 8.58667V13.0267" stroke="#292D32" stroke-width="1.5" stroke-miterlimit="10" stroke-linecap="round"/>
<path d="M16.0304 2.66669C11.1238 2.66669 7.15044 6.64002 7.15044 11.5467V14.3467C7.15044 15.2534 6.7771 16.6134 6.31044 17.3867L4.6171 20.2134C3.5771 21.96 4.2971 23.9067 6.2171 24.5467C12.5904 26.6667 19.4838 26.6667 25.8571 24.5467C27.6571 23.9467 28.4304 21.84 27.4571 20.2134L25.7638 17.3867C25.2971 16.6134 24.9238 15.24 24.9238 14.3467V11.5467C24.9104 6.66669 20.9104 2.66669 16.0304 2.66669Z" stroke="#292D32" stroke-width="1.5" stroke-miterlimit="10" stroke-linecap="round"/>
<path d="M20.4425 25.0933C20.4425 27.5333 18.4425 29.5333 16.0025 29.5333C14.7892 29.5333 13.6692 29.0267 12.8692 28.2267C12.0692 27.4267 11.5625 26.3067 11.5625 25.0933" stroke="#292D32" stroke-width="1.5" stroke-miterlimit="10"/>
</svg>
