<svg width="32" height="32" viewBox="0 0 32 32" fill="none" xmlns="http://www.w3.org/2000/svg">
<path d="M29.3359 8.66669H21.3359" stroke="#292D32" stroke-width="1.5" stroke-miterlimit="10" stroke-linecap="round" stroke-linejoin="round"/>
<path d="M7.9974 8.66669H2.66406" stroke="#292D32" stroke-width="1.5" stroke-miterlimit="10" stroke-linecap="round" stroke-linejoin="round"/>
<path d="M13.3307 13.3333C15.9081 13.3333 17.9974 11.244 17.9974 8.66667C17.9974 6.08934 15.9081 4 13.3307 4C10.7534 4 8.66406 6.08934 8.66406 8.66667C8.66406 11.244 10.7534 13.3333 13.3307 13.3333Z" stroke="#292D32" stroke-width="1.5" stroke-miterlimit="10" stroke-linecap="round" stroke-linejoin="round"/>
<path d="M29.3333 23.3333H24" stroke="#292D32" stroke-width="1.5" stroke-miterlimit="10" stroke-linecap="round" stroke-linejoin="round"/>
<path d="M10.6641 23.3333H2.66406" stroke="#292D32" stroke-width="1.5" stroke-miterlimit="10" stroke-linecap="round" stroke-linejoin="round"/>
<path d="M18.6667 28C21.244 28 23.3333 25.9107 23.3333 23.3334C23.3333 20.756 21.244 18.6667 18.6667 18.6667C16.0893 18.6667 14 20.756 14 23.3334C14 25.9107 16.0893 28 18.6667 28Z" stroke="#292D32" stroke-width="1.5" stroke-miterlimit="10" stroke-linecap="round" stroke-linejoin="round"/>
</svg>
