<svg width="32" height="32" viewBox="0 0 32 32" fill="none" xmlns="http://www.w3.org/2000/svg">
<path d="M13.9869 2.97333L7.33354 5.46666C5.8002 6.03999 4.54688 7.85331 4.54688 9.49331V19.4C4.54688 20.9733 5.58689 23.04 6.85356 23.9866L12.5869 28.2667C14.4669 29.68 17.5602 29.68 19.4402 28.2667L25.1735 23.9866C26.4402 23.04 27.4802 20.9733 27.4802 19.4V9.49331C27.4802 7.85331 26.2269 6.03999 24.6935 5.46666L18.0402 2.97333C16.9069 2.56 15.0935 2.56 13.9869 2.97333Z" stroke="#292D32" stroke-width="1.5" stroke-linecap="round" stroke-linejoin="round"/>
<path d="M15.997 14.5599C15.9437 14.5599 15.877 14.5599 15.8236 14.5599C14.5703 14.5199 13.5703 13.4799 13.5703 12.2132C13.5703 10.9199 14.6237 9.86652 15.917 9.86652C17.2103 9.86652 18.2637 10.9199 18.2637 12.2132C18.2503 13.4932 17.2503 14.5199 15.997 14.5599Z" stroke="#292D32" stroke-width="1.5" stroke-linecap="round" stroke-linejoin="round"/>
<path d="M13.3428 18.2932C12.0628 19.1466 12.0628 20.5465 13.3428 21.3999C14.7961 22.3732 17.1828 22.3732 18.6361 21.3999C19.9161 20.5465 19.9161 19.1466 18.6361 18.2932C17.1961 17.3199 14.8095 17.3199 13.3428 18.2932Z" stroke="#292D32" stroke-width="1.5" stroke-linecap="round" stroke-linejoin="round"/>
</svg>
