<svg width="32" height="32" viewBox="0 0 32 32" fill="none" xmlns="http://www.w3.org/2000/svg">
<path d="M24 25.1463H22.9867C21.92 25.1463 20.9067 25.5596 20.16 26.3063L17.88 28.5597C16.84 29.5864 15.1467 29.5864 14.1067 28.5597L11.8267 26.3063C11.08 25.5596 10.0533 25.1463 9 25.1463H8C5.78667 25.1463 4 23.373 4 21.1864V6.63965C4 4.45298 5.78667 2.67969 8 2.67969H24C26.2133 2.67969 28 4.45298 28 6.63965V21.1864C28 23.3597 26.2133 25.1463 24 25.1463Z" stroke="#292D32" stroke-width="1.5" stroke-miterlimit="10" stroke-linecap="round" stroke-linejoin="round"/>
<path d="M9.33594 12.2134C9.33594 10.9734 10.3493 9.95996 11.5893 9.95996C12.8293 9.95996 13.8426 10.9734 13.8426 12.2134C13.8426 14.72 10.2826 14.9867 9.49593 17.3734C9.33593 17.8667 9.74927 18.36 10.2693 18.36H13.8426" stroke="#292D32" stroke-width="1.5" stroke-linecap="round" stroke-linejoin="round"/>
<path d="M21.3863 18.3467V10.7334C21.3863 10.3867 21.1597 10.08 20.8263 9.98665C20.493 9.89331 20.133 10.0266 19.9464 10.32C18.9864 11.8666 17.9464 13.6267 17.0397 15.1733C16.893 15.4267 16.893 15.76 17.0397 16.0133C17.1864 16.2667 17.4664 16.4266 17.773 16.4266H22.6664" stroke="#292D32" stroke-width="1.5" stroke-linecap="round" stroke-linejoin="round"/>
</svg>
