<svg width="32" height="32" viewBox="0 0 32 32" fill="none" xmlns="http://www.w3.org/2000/svg">
<path d="M11.1719 16.0001L14.3852 19.2268L20.8252 12.7734" stroke="#292D32" stroke-width="1.5" stroke-linecap="round" stroke-linejoin="round"/>
<path d="M14.3319 3.26645C15.2519 2.47979 16.7585 2.47979 17.6919 3.26645L19.7985 5.07979C20.1985 5.42645 20.9452 5.70645 21.4785 5.70645H23.7452C25.1585 5.70645 26.3185 6.86645 26.3185 8.27979V10.5465C26.3185 11.0665 26.5985 11.8265 26.9452 12.2265L28.7585 14.3331C29.5452 15.2531 29.5452 16.7598 28.7585 17.6931L26.9452 19.7998C26.5985 20.1998 26.3185 20.9465 26.3185 21.4798V23.7465C26.3185 25.1598 25.1585 26.3198 23.7452 26.3198H21.4785C20.9585 26.3198 20.1985 26.5998 19.7985 26.9465L17.6919 28.7598C16.7719 29.5465 15.2652 29.5465 14.3319 28.7598L12.2252 26.9465C11.8252 26.5998 11.0785 26.3198 10.5452 26.3198H8.23854C6.82521 26.3198 5.66521 25.1598 5.66521 23.7465V21.4665C5.66521 20.9465 5.38521 20.1998 5.05187 19.7998L3.25188 17.6798C2.47854 16.7598 2.47854 15.2665 3.25188 14.3465L5.05187 12.2265C5.38521 11.8265 5.66521 11.0798 5.66521 10.5598V8.26645C5.66521 6.85312 6.82521 5.69312 8.23854 5.69312H10.5452C11.0652 5.69312 11.8252 5.41312 12.2252 5.06645L14.3319 3.26645Z" stroke="#292D32" stroke-width="1.5" stroke-linecap="round" stroke-linejoin="round"/>
</svg>
